<svg xmlns="http://www.w3.org/2000/svg" width="86" height="86" viewBox="0 0 86 86"><defs><style>.a{fill:#f8f8f8;}.b{fill:#1d1d1b;}</style></defs><g transform="translate(-1764 -27)"><circle class="a" cx="43" cy="43" r="43" transform="translate(1764 27)"/><path class="b" d="M28.01,24.347a12.629,12.629,0,1,0-13.195,0c-7.8,1.747-13.27,6.519-13.27,12.294,0,4.726,12.489,5.987,19.867,5.987S41.28,41.367,41.28,36.641C41.28,30.866,35.808,26.094,28.01,24.347ZM11.385,13.613A10.028,10.028,0,1,1,21.413,23.624,10.031,10.031,0,0,1,11.385,13.613ZM21.413,40.026c-10.606,0-16.955-2.237-17.265-3.394.008-5.739,7.75-10.407,17.265-10.407s17.255,4.667,17.265,10.405C38.376,37.786,32.027,40.026,21.413,40.026Z" transform="translate(1785.454 48.585)"/></g></svg>